<?xml version="1.0" standalone="no"?>
<!DOCTYPE svg PUBLIC "-//W3C//DTD SVG 20010904//EN"
 "http://www.w3.org/TR/2001/REC-SVG-20010904/DTD/svg10.dtd">
<svg version="1.0" xmlns="http://www.w3.org/2000/svg"
 width="634.000000pt" height="298.000000pt" viewBox="0 0 634.000000 298.000000"
 preserveAspectRatio="xMidYMid meet">

<g transform="translate(0.000000,298.000000) scale(0.100000,-0.100000)"
fill="#000000" stroke="none">
<path d="M3240 2715 l0 -115 -1435 0 -1435 0 0 -835 0 -835 1315 0 1315 0 0
820 0 820 140 0 140 0 0 115 0 115 110 0 110 0 0 -115 0 -115 145 0 145 0 0
115 0 115 110 0 110 0 0 -115 0 -115 150 0 150 0 0 115 0 115 110 0 110 0 0
-115 0 -115 150 0 150 0 0 115 0 115 110 0 110 0 0 -115 0 -115 150 0 150 0 0
115 0 115 110 0 110 0 0 -115 0 -115 125 0 c104 0 125 2 125 15 0 12 -18 15
-105 15 l-105 0 0 115 0 115 -150 0 -150 0 0 -115 0 -115 -110 0 -110 0 0 115
0 115 -150 0 -150 0 0 -115 0 -115 -110 0 -110 0 0 115 0 115 -150 0 -150 0 0
-115 0 -115 -110 0 -110 0 0 115 0 115 -150 0 -150 0 0 -115 0 -115 -105 0
-105 0 0 115 0 115 -150 0 -150 0 0 -115z m-1662 -350 c53 -44 47 -130 -11
-165 -28 -18 -51 -20 -189 -20 l-158 0 0 -465 c0 -500 -1 -514 -51 -549 -29
-20 -110 -21 -148 -2 -56 29 -56 30 -59 544 l-3 472 -150 0 c-203 0 -239 16
-239 107 0 43 21 80 54 93 11 5 224 9 473 9 l451 1 30 -25z m1074 -3 c35 -34
32 -102 -5 -139 l-27 -28 -310 -3 -310 -3 0 -145 0 -144 286 0 286 0 29 -29
c21 -22 29 -39 29 -66 0 -27 -8 -44 -29 -66 l-29 -29 -286 0 -286 0 0 -170 0
-169 320 -3 320 -3 27 -28 c22 -22 28 -37 28 -73 0 -38 -5 -50 -28 -70 l-28
-24 -399 0 c-235 0 -409 4 -424 10 -14 5 -35 24 -46 42 -19 32 -20 51 -20 556
0 455 2 527 16 553 29 57 40 59 471 56 l392 -2 23 -23z"/>
<path d="M3630 2384 c-241 -52 -403 -241 -440 -514 -39 -282 84 -566 289 -669
81 -41 172 -61 286 -61 171 0 294 48 392 154 147 158 151 356 8 356 -55 0 -87
-26 -110 -87 -40 -109 -107 -182 -194 -211 -48 -17 -159 -15 -213 4 -94 32
-171 130 -197 252 -14 68 -14 236 0 304 25 117 85 206 170 253 49 27 63 30
144 30 68 0 98 -5 125 -19 54 -28 108 -85 150 -157 46 -77 57 -88 102 -95 46
-8 84 10 108 48 26 42 25 73 -2 145 -25 69 -124 173 -205 216 -115 61 -275 81
-413 51z"/>
<path d="M4549 2377 c-22 -15 -38 -36 -45 -62 -15 -49 -19 -1018 -4 -1079 5
-22 20 -50 33 -64 32 -32 101 -41 145 -18 54 28 62 57 62 229 l0 155 102 97
101 96 131 -200 c72 -110 152 -234 178 -276 54 -86 93 -115 156 -115 105 0
150 72 109 173 -9 20 -100 157 -203 304 -103 147 -187 273 -188 279 -1 6 68
77 152 156 171 161 192 187 192 238 0 85 -103 139 -180 94 -15 -9 -144 -138
-286 -287 l-259 -270 -5 249 c-3 169 -9 256 -17 270 -15 27 -71 54 -111 54
-16 0 -44 -10 -63 -23z"/>
<path d="M2421 761 c-6 -11 -11 -50 -11 -86 l0 -67 -34 21 c-42 27 -110 27
-152 2 -42 -26 -64 -77 -64 -150 0 -141 93 -214 202 -158 45 23 48 23 53 6 8
-23 42 -34 61 -18 12 10 14 49 12 238 l-3 226 -27 3 c-18 2 -30 -3 -37 -17z
m-66 -181 c59 -22 72 -143 20 -187 -73 -64 -158 22 -126 128 11 37 42 69 68
69 6 0 23 -4 38 -10z"/>
<path d="M2600 766 c-6 -8 -10 -25 -8 -38 2 -19 9 -23 38 -23 29 0 36 4 38 23
4 28 -14 52 -38 52 -10 0 -23 -7 -30 -14z"/>
<path d="M3180 766 c-6 -8 -10 -25 -8 -38 2 -19 9 -23 38 -23 29 0 36 4 38 23
4 28 -14 52 -38 52 -10 0 -23 -7 -30 -14z"/>
<path d="M3967 773 c-4 -3 -7 -106 -7 -228 0 -188 2 -225 15 -235 12 -10 21
-10 40 -2 l25 12 0 218 c0 156 -3 221 -12 230 -13 13 -50 16 -61 5z"/>
<path d="M3372 758 c-7 -7 -12 -34 -12 -60 0 -43 -3 -50 -25 -58 -15 -6 -25
-17 -25 -30 0 -13 9 -22 25 -26 25 -6 25 -7 25 -119 0 -143 10 -159 93 -159
59 0 87 15 87 45 0 15 -8 19 -40 19 -52 0 -60 17 -60 123 l0 85 35 6 c28 6 35
11 35 31 0 19 -6 24 -32 27 -32 3 -33 4 -36 58 -2 30 -9 58 -15 62 -18 11 -41
10 -55 -4z"/>
<path d="M2597 643 c-4 -3 -7 -77 -7 -163 0 -129 3 -160 15 -170 12 -10 21
-10 40 -2 25 12 25 12 25 161 0 82 -3 156 -6 165 -6 16 -54 22 -67 9z"/>
<path d="M2812 630 c-43 -26 -62 -74 -62 -152 0 -73 22 -117 72 -148 45 -27
95 -25 141 5 42 29 46 22 26 -48 -17 -64 -86 -76 -143 -26 -46 40 -81 37 -81
-6 0 -73 157 -109 256 -59 50 25 59 64 59 256 0 95 -4 179 -9 186 -12 20 -54
10 -66 -15 l-11 -22 -22 21 c-31 31 -116 36 -160 8z m153 -64 c52 -52 40 -156
-21 -182 -46 -19 -81 -5 -100 43 -44 105 49 211 121 139z"/>
<path d="M3177 643 c-4 -3 -7 -77 -7 -163 0 -129 3 -160 15 -170 12 -10 21
-10 40 -2 25 12 25 12 25 161 0 82 -3 156 -6 165 -6 16 -54 22 -67 9z"/>
<path d="M3622 631 c-36 -23 -58 -61 -49 -85 10 -27 49 -18 77 16 23 27 34 33
68 33 47 0 60 -10 64 -44 3 -22 -3 -26 -52 -38 -150 -36 -170 -49 -170 -111 0
-93 98 -128 197 -71 33 18 33 18 57 -6 29 -29 39 -31 61 -9 11 11 14 24 10 38
-4 12 -10 72 -14 133 -8 147 -16 157 -134 161 -69 3 -87 0 -115 -17z m168
-187 c0 -36 -50 -84 -88 -84 -36 0 -66 31 -57 59 5 18 33 31 90 44 46 11 55 7
55 -19z"/>
<path d="M290 510 l0 -30 920 0 920 0 0 30 0 30 -920 0 -920 0 0 -30z"/>
<path d="M4090 510 l0 -30 920 0 920 0 0 30 0 30 -920 0 -920 0 0 -30z"/>
</g>
</svg>
